{"title":"Hitman Agent 47 2015 720p HDRip KORSUB XviD MP3-RARBG","uid":12612825,"size":2743497746,"categoryP":"video","categoryS":"hd___movies","magnet":"?xt=urn:btih:5752d219ea6c4e71bac89cd566c592630c7c1ccd&amp;dn=Hitman+Agent+47+2015+720p+HDRip+KORSUB+XviD+MP3-RARBG&amp;tr=udp%3A%2F%2Ftracker.leechers-paradise.org%3A6969&amp;tr=udp%3A%2F%2Fzer0day.ch%3A1337&amp;tr=udp%3A%2F%2Fopen.demonii.com%3A1337&amp;tr=udp%3A%2F%2Ftracker.coppersurfer.tk%3A6969&amp;tr=udp%3A%2F%2Fexodus.desync.com%3A6969","seeders":0,"leechers":1,"uploader":"TheRival","files":4,"time":1445482170,"description":"Screens: \nhttp://extraimago.com/image/Unm \nhttp://extraimago.com/image/Uni \nhttp://extraimago.com/image/Unl \nhttp://extraimago.com/image/UnI \nhttp://extraimago.com/image/Und \nhttp://extraimago.com/image/Unh\r\n\r\nMediainfo :\r\n\r\nVideo\r\nID : 0\r\nFormat : MPEG-4 Visual\r\nFormat profile :   \r\nFormat settings, BVOP : No\r\nFormat settings, QPel : No\r\nFormat settings, GMC : No warppoints\r\nFormat settings, Matrix : Default (H.263)\r\nCodec ID : XVID\r\nCodec ID/Hint : XviD\r\nDuration : 1h 36mn\r\nBit rate : 3 594 Kbps\r\nWidth : 1 280 pixels\r\nHeight : 712 pixels\r\nDisplay aspect ratio : 16:9\r\nFrame rate : 24.000 fps\r\nColor space : YUV\r\nChroma subsampling : 4:2:0\r\nBit depth : 8 bits\r\nScan type : Progressive\r\nCompression mode : Lossy\r\nBits/(Pixel*Frame) : 0.164\r\nStream size : 2.42 GiB (95%)\r\nWriting library : Lavc56.13.100\r\n\r\nAudio\r\nID : 1\r\nFormat : MPEG Audio\r\nFormat version : Version 1\r\nFormat profile : Layer 3\r\nMode : Joint stereo\r\nMode extension : MS Stereo\r\nCodec ID : 55\r\nCodec ID/Hint : MP3\r\nDuration : 1h 36mn\r\nBit rate mode : Constant\r\nBit rate : 192 Kbps\r\nChannel(s) : 2 channels\r\nSampling rate : 44.1 KHz\r\nCompression mode : Lossy\r\nStream size : 132 MiB (5%)\r\nAlignment : Aligned on interleaves\r\nInterleave, duration : 26 ms (0.63 video frame)\r\nInterleave, preload duration : 522 ms\r\nWriting library : LAME3.99.5","torrent":{"xt":"urn:btih:5752d219ea6c4e71bac89cd566c592630c7c1ccd","amp;dn":"Hitman+Agent+47+2015+720p+HDRip+KORSUB+XviD+MP3-RARBG","amp;tr":["udp%3A%2F%2Ftracker.leechers-paradise.org%3A6969","udp%3A%2F%2Fzer0day.ch%3A1337","udp%3A%2F%2Fopen.demonii.com%3A1337","udp%3A%2F%2Ftracker.coppersurfer.tk%3A6969","udp%3A%2F%2Fexodus.desync.com%3A6969"],"infoHash":"5752d219ea6c4e71bac89cd566c592630c7c1ccd","infoHashBuffer":{"type":"Buffer","data":[87,82,210,25,234,108,78,113,186,200,156,213,102,197,146,99,12,124,28,205]},"announce":[],"urlList":[]}}